@startuml libsys

skinparam BackgroundColor #eaeaea

skinparam class {
    HeaderBackgroundColor LightBlue
}

header Назаров Н.В., 2024

legend
    <b>Обозначения:</b>
    <u>атрибут</u> - ключ
endlegend

package "Задание 1" #White {

    entity Издательство {
        <u>имя</u>
        <u>адрес</u>
    }

    entity Книга {
        <u>ISBN</u>
        год
        название
        автор
        число страниц
    }

    entity Копия {
        <u>ISBN</u>
        <u>номер</u>
        полка
    }

    entity Категория {
        <u>имя</u>
    }

    entity Читатель {
        <u>номер</u>
        имя
        фамилия
        адрес
        день рождения
    }

    entity Бронь {
        дата возврата
    }

    Издательство }|--o{ Книга : издало
    Книга }o--|{ Категория : относится к категории
    Читатель ||-o{ Бронь : забронировал
    Копия ||--o| Бронь : забронирована
    Категория }o-o| Категория : является подкатегорией

}

package "Задание 2" #White {

    rectangle 1 {

        entity Страна
        entity Город
        entity Улица
        entity Дом
        entity Квартира

        Квартира }o-|| Дом : в
        Дом }o--|| Улица : на
        Улица }o-|| Город : в
        Город }o--|| Страна : в

    }

    rectangle 2 {

        entity Команда
        entity Арбитр
        entity Матч

        Команда ||--o{ Матч : участвует как первая команда
        Команда ||-o{ Матч : участвует как вторая команда
        Арбитр ||-o{ Матч : руководит

    }

    rectangle 3 {

        entity Человек

        Человек }o-|| Человек : отец
        Человек }o-|| Человек : мать

    }
}

@enduml